              ***********************************************

                PublicHash - Largest Bittorrent Community
      
                          http://publichash.com/
    
              ***********************************************
98mins -  Action  -  30 May 2013 (USA)
IMDB rating: 5.9

Action epic sees a passionate young man transform into a brutal warrior as he travels the unforgiving landscape in search of his long lost brother Hakan The Ferrocious, whose people are relying on him to restore order to their kingdom.

Director: Farren Blackburn
Writer: Matthew Read

Charlie Bewley ... Steinar
Clive Standen ... Hagen
James Cosmo ... King Bagsecg
Elliot Cowan ... Hakan
Glynis Barber ... Astrid
Ivan Kaye ... Ivar
Michael Jibson ... Grim
Guy Flanagan ... Jokul
Theo Barklem-Biggs ... Vali
Alexandra Dowling ... Agnes
Finlay Robertson ... Harald
Michael Lindall ... Saxon Leader
Francis Magee ... Ulric
Christian Carroll ... Drummer
Rimmel Daniel ... Viking Cave Dweller 
 
http://imgsure.com/?p=559807 
http://imgsure.com/?p=999364

General
Complete name                            : Hammer Of The Gods 2013 WEBrip Xvid Ac3-MiLLENiUM.avi
Source                                   : AQOS [Thanks]
Format                                   : AVI
Format/Info                              : Audio Video Interleave
File size                                : 1.43 GiB
Duration                                 : 1h 38mn
Overall bit rate                         : 2 074 Kbps
Writing application                      : VirtualDubMod 1.5.10.2 (build 2540/release)
Writing library                          : VirtualDubMod build 2540/release

Video
ID                                       : 0
Format                                   : MPEG-4 Visual
Format profile                           : Advanced Simple@L5
Format settings, BVOP                    : 2
Format settings, QPel                    : No
Format settings, GMC                     : No warppoints
Format settings, Matrix                  : Default (H.263)
Muxing mode                              : Packed bitstream
Codec ID                                 : XVID
Codec ID/Hint                            : XviD
Duration                                 : 1h 38mn
Bit rate                                 : 1 680 Kbps
Width                                    : 720 pixels
Height                                   : 304 pixels
Display aspect ratio                     : 2.35:1
Frame rate                               : 23.976 fps
Color space                              : YUV
Chroma subsampling                       : 4:2:0
Bit depth                                : 8 bits
Scan type                                : Progressive
Compression mode                         : Lossy
Bits/(Pixel*Frame)                       : 0.320
Stream size                              : 1.16 GiB (81%)
Writing library                          : XviD 64

Audio
ID                                       : 1
Format                                   : AC-3
Format/Info                              : Audio Coding 3
Mode extension                           : CM (complete main)
Codec ID                                 : 2000
Duration                                 : 1h 38mn
Bit rate mode                            : Constant
Bit rate                                 : 384 Kbps
Channel(s)                               : 6 channels
Channel positions                        : Front: L C R, Side: L R, LFE
Sampling rate                            : 48.0 KHz
Bit depth                                : 16 bits
Compression mode                         : Lossy
Delay relative to video                  : 19ms
Stream size                              : 271 MiB (19%)
Alignment                                : Split accross interleaves
Interleave, duration                     : 42 ms (1.00 video frame)
Interleave, preload duration             : 500 ms

IMDB link: http://www.imdb.com/title/tt2193418/